<svg width="28" height="28" viewBox="0 0 28 28" fill="none" xmlns="http://www.w3.org/2000/svg">
<path d="M21.5261 16.1983C21.7779 16.1984 22.0229 16.1205 22.2239 15.9764C22.4249 15.8323 22.5709 15.6299 22.6399 15.3998L24.9557 7.70081C25.0048 7.53713 25.0132 7.36486 24.9803 7.19756C24.9474 7.03026 24.8741 6.87249 24.7662 6.73667C24.6582 6.60085 24.5185 6.49068 24.3581 6.41484C24.1977 6.33899 24.021 6.29954 23.8418 6.29959H8.52308L7.83414 3.8194C7.76894 3.58455 7.62374 3.37681 7.4212 3.22859C7.21866 3.08036 6.97016 2.99999 6.71447 3H4.15788C3.85079 3 3.55628 3.11588 3.33913 3.32214C3.12199 3.52841 3 3.80816 3 4.09986C3 4.39156 3.12199 4.67132 3.33913 4.87758C3.55628 5.08385 3.85079 5.19972 4.15788 5.19972H5.82291L6.51763 7.67991V7.69091V7.70081L8.83339 15.3998L9.69717 18.684C9.12533 18.9249 8.63257 19.3079 8.27092 19.7927C7.90927 20.2775 7.69215 20.8461 7.64248 21.4384C7.59281 22.0307 7.71245 22.6248 7.98875 23.1579C8.26505 23.6909 8.68776 24.1433 9.21225 24.4671C9.73674 24.7908 10.3435 24.9741 10.9686 24.9974C11.5936 25.0208 12.2137 24.8834 12.7634 24.5998C13.313 24.3161 13.7718 23.8968 14.0914 23.3859C14.4109 22.8751 14.5793 22.2918 14.5788 21.6977C14.5749 21.3221 14.5029 20.95 14.3657 20.5978H17.1076C16.9705 20.95 16.8984 21.3221 16.8945 21.6977C16.8945 22.3503 17.0983 22.9882 17.48 23.5308C17.8616 24.0734 18.4041 24.4963 19.0389 24.7461C19.6736 24.9958 20.372 25.0612 21.0458 24.9338C21.7197 24.8065 22.3386 24.4923 22.8244 24.0308C23.3102 23.5694 23.641 22.9814 23.7751 22.3414C23.9091 21.7013 23.8403 21.0379 23.5774 20.435C23.3145 19.832 22.8693 19.3167 22.298 18.9542C21.7268 18.5916 21.0552 18.3981 20.3682 18.3981H12.0083L11.4294 16.1983H21.5261ZM22.3065 8.49931L20.653 13.9986H10.8203L9.16686 8.49931H22.3065ZM12.263 21.6977C12.263 21.9152 12.1951 22.1278 12.0679 22.3087C11.9407 22.4896 11.7598 22.6306 11.5482 22.7138C11.3367 22.797 11.1039 22.8188 10.8793 22.7764C10.6547 22.7339 10.4483 22.6292 10.2864 22.4754C10.1245 22.3216 10.0142 22.1256 9.96952 21.9122C9.92484 21.6989 9.94777 21.4777 10.0354 21.2768C10.123 21.0758 10.2715 20.904 10.4619 20.7832C10.6523 20.6623 10.8761 20.5978 11.1051 20.5978C11.4122 20.5978 11.7067 20.7137 11.9239 20.9199C12.141 21.1262 12.263 21.406 12.263 21.6977ZM20.3682 22.7975C20.1392 22.7975 19.9153 22.733 19.7249 22.6122C19.5345 22.4913 19.3861 22.3195 19.2984 22.1186C19.2108 21.9176 19.1879 21.6964 19.2325 21.4831C19.2772 21.2697 19.3875 21.0738 19.5494 20.9199C19.7114 20.7661 19.9177 20.6614 20.1423 20.6189C20.3669 20.5765 20.5997 20.5983 20.8113 20.6815C21.0228 20.7648 21.2037 20.9057 21.3309 21.0866C21.4581 21.2675 21.5261 21.4801 21.5261 21.6977C21.5261 21.9894 21.4041 22.2691 21.1869 22.4754C20.9698 22.6816 20.6753 22.7975 20.3682 22.7975Z" fill="#73818E"/>
</svg>
