<svg width="20" height="20" viewBox="0 0 20 20" fill="none" xmlns="http://www.w3.org/2000/svg">
<path d="M19.127 7.8937L18.235 7.00068C18.047 6.81267 17.943 6.56266 17.943 6.29766V5.03463C17.943 3.39158 16.607 2.05555 14.964 2.05555H13.701C13.44 2.05555 13.184 1.94955 12.999 1.76454L12.106 0.871522C10.944 -0.290507 9.055 -0.290507 7.894 0.871522L7.001 1.76354C6.816 1.94855 6.56 2.05455 6.299 2.05455H5.035C3.392 2.05455 2.056 3.39058 2.056 5.03363V6.29666C2.056 6.56166 1.952 6.81167 1.765 6.99967L0.873 7.8927C0.31 8.45571 0 9.20373 0 9.99975C0 10.7958 0.31 11.5438 0.873 12.1058L1.765 12.9988C1.953 13.1868 2.057 13.4368 2.057 13.7018V14.9649C2.057 16.6079 3.393 17.944 5.036 17.944H6.299C6.56 17.944 6.816 18.05 7.001 18.235L7.894 19.129C8.475 19.709 9.237 20 10 20C10.762 20 11.525 19.71 12.106 19.129L12.999 18.236C13.184 18.051 13.44 17.945 13.701 17.945H14.964C16.607 17.945 17.943 16.6089 17.943 14.9659V13.7028C17.943 13.4378 18.047 13.1878 18.235 12.9998L19.127 12.1078C19.69 11.5438 20 10.7958 20 9.99975C20 9.20373 19.69 8.45571 19.127 7.8937ZM17.723 10.7018L16.83 11.5948C16.268 12.1578 15.957 12.9058 15.957 13.7008V14.9639C15.957 15.5109 15.512 15.9569 14.964 15.9569H13.701C12.906 15.9569 12.157 16.2669 11.595 16.8299L10.702 17.7229C10.314 18.111 9.686 18.11 9.298 17.7229L8.405 16.8299C7.843 16.2669 7.094 15.9569 6.299 15.9569H5.035C4.487 15.9569 4.042 15.5109 4.042 14.9639V13.7008C4.042 12.9058 3.733 12.1578 3.169 11.5938L2.276 10.6998C2.089 10.5138 1.986 10.2648 1.986 9.99975C1.986 9.73474 2.089 9.48574 2.277 9.29773L3.171 8.40371C3.733 7.8407 4.043 7.09268 4.043 6.29766V5.03463C4.043 4.48761 4.488 4.0416 5.036 4.0416H6.299C7.094 4.0416 7.843 3.73159 8.405 3.16858L9.298 2.27556C9.686 1.88855 10.314 1.88855 10.702 2.27556L11.595 3.16858C12.157 3.73159 12.906 4.0416 13.701 4.0416H14.964C15.512 4.0416 15.957 4.48761 15.957 5.03463V6.29766C15.957 7.09268 16.266 7.8407 16.83 8.40471L17.723 9.29873C17.911 9.48574 18.014 9.73475 18.014 10.0008C18.014 10.2668 17.911 10.5138 17.723 10.7018Z" fill="#1F2A37"/>
<path d="M13.445 7.16768L8.127 10.7128L6.707 9.29273C6.316 8.90172 5.684 8.90172 5.293 9.29273C4.902 9.68374 4.902 10.3158 5.293 10.7068L7.293 12.7068C7.486 12.8998 7.742 12.9998 8 12.9998C8.192 12.9998 8.386 12.9448 8.555 12.8318L14.555 8.83172C15.015 8.52571 15.139 7.9047 14.832 7.44469C14.526 6.98467 13.906 6.86067 13.445 7.16768Z" fill="#1F2A37"/>
</svg>
