<svg width="20" height="20" viewBox="0 0 20 20" fill="none" xmlns="http://www.w3.org/2000/svg">
<path d="M18 12H8V2C8 0.897 7.103 0 6 0H2C0.897 0 0 0.897 0 2V19C0 19.553 0.447 20 1 20H18C19.103 20 20 19.103 20 18V14C20 12.897 19.103 12 18 12ZM18 18H2V2H6V3H4C3.447 3 3 3.447 3 4C3 4.553 3.447 5 4 5H6V6H4C3.447 6 3 6.447 3 7C3 7.553 3.447 8 4 8H6V9H4C3.447 9 3 9.447 3 10C3 10.553 3.447 11 4 11H6C6 11 6 12.724 6 13C6 13.553 6.447 14 7 14H9V16C9 16.553 9.447 17 10 17C10.553 17 11 16.553 11 16V14H12V16C12 16.553 12.447 17 13 17C13.553 17 14 16.553 14 16V14H15V16C15 16.553 15.447 17 16 17C16.553 17 17 16.553 17 16V14H18V18Z" fill="#1F2A37"/>
<path d="M4.5 17C5.32843 17 6 16.3284 6 15.5C6 14.6716 5.32843 14 4.5 14C3.67157 14 3 14.6716 3 15.5C3 16.3284 3.67157 17 4.5 17Z" fill="#1F2A37"/>
</svg>
