<svg width="20" height="20" viewBox="0 0 20 20" fill="none" xmlns="http://www.w3.org/2000/svg">
<path d="M19.9 8.62971C19.9 8.62019 19.9 8.60961 19.894 8.60114L17.894 4.36834C17.811 4.19259 17.6834 4.04476 17.5255 3.94141C17.3676 3.83805 17.1857 3.78326 17 3.78315H13C13 3.22185 12.7893 2.68353 12.4142 2.28663C12.0391 1.88973 11.5304 1.66675 11 1.66675H2C1.46957 1.66675 0.960859 1.88973 0.585786 2.28663C0.210714 2.68353 0 3.22185 0 3.78315V13.307C0 13.5876 0.105357 13.8568 0.292893 14.0552C0.48043 14.2537 0.734784 14.3652 1 14.3652H1.3C1.26981 14.5398 1.25275 14.7167 1.249 14.8943C1.249 15.8064 1.59141 16.6811 2.2009 17.3261C2.8104 17.9711 3.63705 18.3334 4.499 18.3334C5.36095 18.3334 6.1876 17.9711 6.7971 17.3261C7.40659 16.6811 7.749 15.8064 7.749 14.8943C7.74591 14.7168 7.72952 14.5399 7.7 14.3652H12.3C12.2698 14.5398 12.2528 14.7167 12.249 14.8943C12.249 15.8064 12.5914 16.6811 13.2009 17.3261C13.8104 17.9711 14.637 18.3334 15.499 18.3334C16.361 18.3334 17.1876 17.9711 17.7971 17.3261C18.4066 16.6811 18.749 15.8064 18.749 14.8943C18.7459 14.7168 18.7295 14.5399 18.7 14.3652H19C19.2652 14.3652 19.5196 14.2537 19.7071 14.0552C19.8946 13.8568 20 13.5876 20 13.307V9.07416C19.998 8.92003 19.9638 8.76827 19.9 8.62971ZM15.5 11.4551C14.7499 11.4589 14.0245 11.7395 13.449 12.2488H13V10.1324H18V12.2488H17.551C16.9755 11.7395 16.2501 11.4589 15.5 11.4551ZM16.382 5.89955L17.382 8.01595H13V5.89955H16.382ZM2 3.78315H11V12.2488H6.551C5.97751 11.7367 5.25135 11.4559 4.501 11.4559C3.75065 11.4559 3.02449 11.7367 2.451 12.2488H2V3.78315ZM4.5 16.217C4.25277 16.217 4.0111 16.1394 3.80554 15.9941C3.59998 15.8487 3.43976 15.6422 3.34515 15.4005C3.25054 15.1588 3.22579 14.8928 3.27402 14.6362C3.32225 14.3796 3.4413 14.1439 3.61612 13.9589C3.79093 13.7739 4.01366 13.648 4.25614 13.5969C4.49861 13.5459 4.74995 13.5721 4.97835 13.6722C5.20676 13.7723 5.40199 13.9419 5.53934 14.1594C5.67669 14.3769 5.75 14.6326 5.75 14.8943C5.74947 15.2449 5.61761 15.581 5.3833 15.829C5.14899 16.0769 4.83136 16.2165 4.5 16.217ZM15.5 16.217C15.2528 16.217 15.0111 16.1394 14.8055 15.9941C14.6 15.8487 14.4398 15.6422 14.3451 15.4005C14.2505 15.1588 14.2258 14.8928 14.274 14.6362C14.3223 14.3796 14.4413 14.1439 14.6161 13.9589C14.7909 13.7739 15.0137 13.648 15.2561 13.5969C15.4986 13.5459 15.7499 13.5721 15.9784 13.6722C16.2068 13.7723 16.402 13.9419 16.5393 14.1594C16.6767 14.3769 16.75 14.6326 16.75 14.8943C16.7495 15.2449 16.6176 15.581 16.3833 15.829C16.149 16.0769 15.8314 16.2165 15.5 16.217Z" fill="#1F2A37"/>
</svg>
