<svg width="130" height="130" viewBox="0 0 130 130" fill="none" xmlns="http://www.w3.org/2000/svg">
<path d="M92.7654 49.4691L104.372 70.3347C108.647 78.0202 105.885 87.7077 98.1994 91.9828L70.3786 107.458C62.6932 111.734 53.0056 108.971 48.7305 101.286L37.1238 80.4202C36.0598 78.5075 36.7543 76.0721 38.6669 75.0082L45.5178 71.1973C47.4305 70.1334 49.8659 70.8278 50.9298 72.7405L57.004 83.6601C58.4355 86.2336 61.1767 87.8052 64.1142 87.765C65.4323 87.7604 66.6998 87.4196 67.8474 86.7812C69.1689 86.0461 70.2776 84.9285 70.9997 83.5251L73.104 79.5312L77.3056 79.8807C80.2201 80.1265 83.0293 78.7915 84.6127 76.317C86.2309 73.8231 86.3606 70.6999 84.9098 68.0917L78.855 57.2069C77.791 55.2942 78.4854 52.8588 80.3981 51.7948L87.3533 47.9259C89.266 46.862 91.7014 47.5564 92.7654 49.4691Z" fill="#A5DDDF"/>
<path d="M88.3095 29.1792L90.244 32.6568C92.3719 36.4822 92.2697 40.6373 87.1577 43.4809L34.9937 72.4976C29.6729 75.4573 26.2975 73.2367 24.1696 69.4113L22.2351 65.9337C20.1072 62.1084 20.0007 58.0693 25.3214 55.1096L77.4854 26.0929C82.5975 23.2493 86.1816 25.3539 88.3095 29.1792Z" fill="#A5DDDF"/>
<path d="M50.1515 41.2975L30.9552 51.9757C29.057 51.3467 27.9892 49.3451 28.5447 47.3968L30.736 39.7117C31.3069 37.7092 33.4283 36.5292 35.4307 37.1002L50.1515 41.2975Z" fill="#A5DDDF"/>
<path d="M71.8169 29.246L52.6206 39.9241L56.818 25.2033C57.3889 23.2009 59.5103 22.0209 61.5127 22.5918L69.1978 24.7831C71.1462 25.3386 72.2836 27.3015 71.8169 29.246Z" fill="#A5DDDF"/>
<path d="M69.861 57.6562C71.7737 56.5923 74.2091 57.2867 75.273 59.1994L81.3278 70.0842C82.8754 72.8663 80.7089 76.2572 77.5432 75.969L73.2527 75.6235C71.6795 75.4968 70.1841 76.3286 69.4273 77.7514L67.3577 81.7259C65.9136 84.5327 61.9248 84.5658 60.3966 81.8185L54.3031 70.8641C53.2392 68.9514 53.9336 66.516 55.8463 65.452L69.861 57.6562Z" fill="#A5DDDF"/>
</svg>
