<svg width="62" height="62" viewBox="0 0 62 62" fill="none" xmlns="http://www.w3.org/2000/svg">
<path d="M44.9358 37.4861L40.0023 48.0066C38.1852 51.8816 33.5747 53.5484 29.6997 51.7313L15.6723 45.1533C11.7973 43.3361 10.1305 38.7257 11.9476 34.8506L16.8811 24.3301C17.3334 23.3657 18.4924 22.9467 19.4568 23.3989L22.911 25.0187C23.8754 25.471 24.2944 26.63 23.8422 27.5944L21.2603 33.1001C20.6519 34.3977 20.8116 35.9271 21.6636 37.0753C22.0405 37.5943 22.5358 37.9977 23.1145 38.269C23.7808 38.5815 24.5375 38.701 25.297 38.5866L27.4726 38.2807L28.5304 40.0388C29.2629 41.2592 30.5895 41.9882 32.017 41.909C33.462 41.838 34.7318 41.0003 35.3485 39.6853L37.9222 34.1971C38.3744 33.2327 39.5334 32.8137 40.4978 33.2659L44.0047 34.9104C44.969 35.3626 45.3881 36.5217 44.9358 37.4861Z" fill="#F9FFFF"/>
<path d="M51.6771 29.9521L50.8549 31.7055C49.9504 33.6343 48.2811 34.7765 45.7035 33.5678L19.4022 21.2341C16.7195 19.9761 16.6354 18.0115 17.5399 16.0828L18.3622 14.3293C19.2666 12.4006 20.8308 11.209 23.5135 12.467L49.8148 24.8007C52.3923 26.0094 52.5816 28.0233 51.6771 29.9521Z" fill="#F9FFFF"/>
<path d="M36.0329 18.3382L26.3541 13.7994C26.0621 12.8711 26.5483 11.8798 27.4756 11.5446L31.133 10.2224C32.086 9.87783 33.1556 10.3794 33.5001 11.3324L36.0329 18.3382Z" fill="#F9FFFF"/>
<path d="M46.9567 23.4607L37.2779 18.9219L44.2837 16.3891C45.2367 16.0446 46.3063 16.5461 46.6508 17.4991L47.9731 21.1566C48.3083 22.0838 47.8571 23.0915 46.9567 23.4607Z" fill="#F9FFFF"/>
<path d="M35.1849 30.7746C36.1493 31.2268 36.5683 32.3859 36.1161 33.3503L33.5425 38.8385C32.8847 40.2412 30.9294 40.351 30.1422 39.0193L29.0575 37.2272C28.6597 36.5701 27.9058 36.2166 27.1287 36.3228L24.9707 36.637C23.4517 36.8658 22.3033 35.3006 22.9529 33.9154L25.543 28.3921C25.9952 27.4277 27.1543 27.0087 28.1187 27.4609L35.1849 30.7746Z" fill="#F9FFFF"/>
</svg>
